Coordinates
version=1
nRows=14
nColumns=33
inDegrees=yes

Units are S.I. units (second, meters, Newtons, ...)
Angles are in degrees.

endheader
time	ground_thorax_rot_x	ground_thorax_rot_y	ground_thorax_rot_z	ground_thorax_tx	ground_thorax_ty	ground_thorax_tz	clav_prot_r	clav_elev_r	scapula_abduction_r	scapula_elevation_r	scapula_upward_rot_r	scapula_winging_r	shoulder_elv_r	plane_of_elev_r	axial_rot_r	elbow_flexion_r	pro_sup_r	wrist_flex_r	wrist_dev_r	clav_prot_l	clav_elev_l	scapula_abduction_l	scapula_elevation_l	scapula_upward_rot_l	scapula_winging_l	shoulder_elv_l	plane_of_elev_l	axial_rot_l	elbow_flexion_l	pro_sup_l	wrist_flex_l	wrist_dev_l
      4.85000000	    -41.05655518	    -16.99683632	      8.72623823	   -109.21948877	    793.22037844	     -1.28910712	      8.52752782	    -45.00000000	     33.56141072	    -45.00000000	    -42.00892161	  -2251.03736721	  -1014.43408712	     28.63757724	     85.83611934	   3250.43877344	     22.49737876	     17.58736359	      9.83664996	     18.34611990	     40.16734861	    -40.84828726	    -45.00000000	    -45.00000000	   1878.27175671	  -1372.18848244	     24.03332638	    -24.82314082	   1084.85618115	     13.29325627	     11.97586145	    -18.71035627
      4.86000000	    -41.11635499	    -16.98903083	      8.73645809	   -114.53079387	    794.15591570	     -1.96801613	      8.36198066	    -45.00000000	     33.29902096	    -45.00000000	    -43.01259181	  -2251.32956674	  -1014.20923266	     28.71120622	     85.94368137	   3250.46059615	     22.74881532	     17.54353005	      9.61038097	     17.89242541	     40.11509916	    -40.54645710	    -45.00000000	    -45.00000000	   1878.68336398	  -1372.18938393	     23.97206247	    -25.33948151	   1084.93306238	     13.23139077	     12.14835851	    -18.75068598
      4.87000000	    -41.17194287	    -17.04879187	      8.73388706	   -119.94177669	    795.21187162	     -2.61841793	      8.11127281	    -45.00000000	     33.04629354	    -45.00000000	    -44.24197892	  -2251.39822571	  -1013.76457455	     28.75415998	     85.46249438	   3250.42401398	     23.01320963	     17.58317953	      9.62766840	     17.53257931	     40.16107572	    -40.15495954	    -45.00000000	    -45.00000000	   1879.18036563	  -1372.24558777	     23.98624598	    -25.66580981	   1085.02347042	     13.16471393	     12.16389459	    -18.78404089
      4.88000000	    -41.20718707	    -17.00176428	      8.71703019	   -125.43214336	    796.39155597	     -3.23761264	      8.21136823	    -45.00000000	     32.88417478	    -45.00000000	    -45.00000000	  -2251.75394563	  -1013.53222278	     28.78374596	     85.59844184	   3250.46272275	     23.42571295	     17.62613641	      9.67082451	     17.40113915	     40.07136603	    -39.84783356	    -45.00000000	    -45.00000000	   1879.38736815	  -1372.10071465	     23.69792867	    -26.46188805	   1085.13080343	     13.24511109	     12.12547894	    -18.79529461
      4.89000000	    -41.23005521	    -16.80154289	      8.55631972	   -130.97727847	    797.70015606	     -3.82380681	      8.40269136	    -45.00000000	     32.82381662	    -45.00000000	    -45.00000000	  -2252.27676380	  -1013.43670941	     28.69371932	     86.40712880	   3250.54796587	     23.94499743	     17.63171995	      9.55596346	     17.27720999	     40.00846665	    -39.66381978	    -45.00000000	    -45.00000000	   1879.68289584	  -1372.04884550	     23.47814036	    -27.66732707	   1085.20971478	     13.42499954	     12.05918096	    -18.79615229
      4.90000000	    -41.20149479	    -16.57822105	      8.48069486	   -136.55180510	    799.14419376	     -4.37626320	      8.49162436	    -45.00000000	     32.77871575	    -45.00000000	    -45.00000000	  -2252.74858776	  -1013.23431640	     28.46603232	     87.08337736	   3250.66482729	     24.55553921	     17.67824239	      9.51446051	     17.18326092	     39.83894491	    -39.44594897	    -45.00000000	    -45.00000000	   1879.84702423	  -1371.96743551	     23.22038125	    -28.54331902	   1085.40848283	     13.48530464	     12.06131442	    -18.84820550
      4.91000000	    -41.24629358	    -16.20089652	      8.07554691	   -142.14060249	    800.73207773	     -4.89508500	      8.63143378	    -45.00000000	     32.81372896	    -45.00000000	    -45.00000000	  -2253.10993358	  -1013.18118533	     28.42753973	     87.42559986	   3250.69309181	     25.29254840	     17.72688947	      9.57607785	     17.16147844	     39.75818985	    -39.12678917	    -45.00000000	    -45.00000000	   1879.98815566	  -1371.82838709	     23.12648230	    -28.95676989	   1085.55787658	     13.54062478	     11.98730160	    -18.88882789
      4.92000000	    -41.26249418	    -16.07194893	      8.02011630	   -147.71696811	    802.46900900	     -5.38010522	      8.65682029	    -45.00000000	     32.82858474	    -45.00000000	    -45.00000000	  -2253.56493144	  -1013.07747352	     28.20109189	     88.27758389	   3250.78505709	     26.11383557	     17.71384147	      9.35388625	     17.04513680	     39.62316585	    -38.87626122	    -45.00000000	    -45.00000000	   1880.23417989	  -1371.72811957	     22.76432798	    -30.00953795	   1085.77265300	     13.75959111	     12.04587752	    -19.01435805
      4.93000000	    -41.30553042	    -15.90203988	      7.97918924	   -153.26279281	    804.36228039	     -5.83096755	      8.87295099	    -45.00000000	     32.74403790	    -45.00000000	    -45.00000000	  -2254.27423942	  -1013.13695120	     28.21342116	     89.79854358	   3250.91066944	     26.97014688	     17.64552071	      9.00242365	     16.94469100	     39.58723633	    -38.59772503	    -45.00000000	    -45.00000000	   1880.53037703	  -1371.52859046	     22.42125418	    -32.17514257	   1086.03160625	     14.24123029	     11.90427176	    -19.10096434
      4.94000000	    -41.30365457	    -15.46973555	      7.58667367	   -158.74944726	    806.41807921	     -6.24595010	      8.92029918	    -45.00000000	     32.83043418	    -45.00000000	    -45.00000000	  -2254.49416945	  -1012.89663425	     28.07820116	     89.45727448	   3251.05408117	     27.99006309	     17.81976582	      9.15382776	     16.90232294	     39.40161309	    -38.31744952	    -45.00000000	    -45.00000000	   1880.58510405	  -1371.53592697	     22.40229333	    -31.55290691	   1086.03454411	     14.25276412	     11.90560314	    -19.20343654
      4.95000000	    -41.28679583	    -15.29369425	      7.57652586	   -164.16175015	    808.63348096	     -6.62227092	      9.11638178	    -45.00000000	     32.71542946	    -45.00000000	    -45.00000000	  -2255.08491550	  -1012.71486022	     28.04228936	     90.52665661	   3251.29935050	     29.03966672	     17.83279317	      8.87226505	     16.84848813	     39.05002460	    -38.13005912	    -45.00000000	    -45.00000000	   1880.80248090	  -1371.38749165	     21.92206190	    -33.30275484	   1086.37725660	     14.81655634	     11.88726266	    -19.38987547
      4.96000000	    -41.33846625	    -14.98296467	      7.33842761	   -169.47873472	    811.00827621	     -6.95686222	      9.17540560	    -45.00000000	     32.81161546	    -45.00000000	    -45.00000000	  -2255.45973089	  -1012.65195989	     27.94839318	     90.74464774	   3251.42115172	     30.18413101	     17.91458498	      8.79581890	     16.73296769	     39.13273135	    -37.84477545	    -45.00000000	    -45.00000000	   1880.98798781	  -1371.34332496	     21.80908514	    -33.57970363	   1086.42918362	     15.20842355	     11.72868030	    -19.51528527
      4.97000000	    -41.35266021	    -14.65003448	      7.15097487	   -174.68333985	    813.53395590	     -7.24636458	      9.26293374	    -45.00000000	     32.83613217	    -45.00000000	    -45.00000000	  -2255.92866841	  -1012.53831779	     27.94083151	     91.18499663	   3251.63149874	     31.32375588	     17.97747019	      8.63242696	     16.67120130	     38.96955078	    -37.55349991	    -45.00000000	    -45.00000000	   1881.16987045	  -1371.20220567	     21.64457999	    -34.53802548	   1086.65018481	     15.83612660	     11.59533629	    -19.69107476
      4.98000000	    -41.40400604	    -14.36794095	      6.99715450	   -179.75965810	    816.20202491	     -7.48900551	      9.35477746	    -45.00000000	     32.86892053	    -45.00000000	    -45.00000000	  -2256.36347819	  -1012.48947013	     27.90573627	     91.53281035	   3251.73880799	     32.44110241	     18.01204394	      8.48453249	     16.54494873	     38.91624931	    -37.27764118	    -45.00000000	    -45.00000000	   1881.38619282	  -1371.04398140	     21.42223867	    -35.35899983	   1086.83083737	     16.53085958	     11.45800226	    -19.87849144
